<?xml version="1.0" encoding="UTF-8"?>
<svg version="1.1" xmlns="http://www.w3.org/2000/svg" width="34" height="35">
<path d="M0 0 C0 7.92 0 15.84 0 24 C2.64 24 5.28 24 8 24 C9 25 9 25 9.125 28 C9 31 9 31 8 32 C6.37742456 32.0991657 4.75060169 32.13079777 3.125 32.1328125 C2.14015625 32.13410156 1.1553125 32.13539062 0.140625 32.13671875 C-0.89578125 32.13285156 -1.9321875 32.12898438 -3 32.125 C-4.55460937 32.13080078 -4.55460937 32.13080078 -6.140625 32.13671875 C-7.12546875 32.13542969 -8.1103125 32.13414063 -9.125 32.1328125 C-10.03507813 32.13168457 -10.94515625 32.13055664 -11.8828125 32.12939453 C-14 32 -14 32 -15 31 C-15.125 28 -15.125 28 -15 25 C-14 24 -14 24 -11.93359375 23.90234375 C-8.46679688 23.95117188 -8.46679688 23.95117188 -5 24 C-5 20.7 -5 17.4 -5 14 C-5.886875 13.9175 -6.77375 13.835 -7.6875 13.75 C-11.53953262 12.87784167 -13.29264788 11.86205796 -16 9 C-16.8125 5.75 -16.8125 5.75 -17 3 C-15.2365625 2.814375 -15.2365625 2.814375 -13.4375 2.625 C-8.95986215 2.07623089 -4.4290238 0 0 0 Z " fill="#D7DFE7" transform="translate(21,2)"/>
<path d="M0 0 C0 5.28 0 10.56 0 16 C-13.68421053 12.30526316 -13.68421053 12.30526316 -17 7 C-16.75 4.6875 -16.75 4.6875 -16 3 C-14.989375 2.87625 -13.97875 2.7525 -12.9375 2.625 C-8.63907253 1.94270993 -4.31974211 0 0 0 Z " fill="#F65D5D" transform="translate(21,2)"/>
</svg>
