<svg version="1.1" id="Layer_1" xmlns="http://www.w3.org/2000/svg" xmlns:xlink="http://www.w3.org/1999/xlink" x="0px" y="0px"
	 width="100%" viewBox="0 0 94 94" enable-background="new 0 0 94 94" xml:space="preserve">
<path fill="#7E7080" opacity="1.000000" stroke="none" 
	d="
M2.000002,95.000000 
	C1.666668,93.671066 1.044828,92.342659 1.042375,91.013115 
	C0.987180,61.092365 1.000000,31.171492 1.000000,1.000000 
	C32.332890,1.000000 63.666443,1.000000 94.655014,1.527350 
	C90.901749,5.397787 87.493469,8.740873 83.610992,12.101112 
	C62.704327,12.134325 42.271851,12.151075 21.839376,12.166142 
	C12.173280,12.173269 12.193512,12.171877 12.162322,21.611639 
	C12.093722,42.373440 12.002590,63.135170 11.649742,84.099808 
	C8.252554,87.868469 5.126278,91.434235 2.000002,95.000000 
z"/>
<path fill="#302232" opacity="1.000000" stroke="none" 
	d="
M84.085190,12.083961 
	C87.493469,8.740873 90.901749,5.397787 94.655014,2.027350 
	C95.000000,32.926922 95.000000,63.853840 95.000000,95.000000 
	C64.312790,95.000000 33.625050,95.000000 2.468659,95.000000 
	C5.126278,91.434235 8.252554,87.868469 12.122982,84.129738 
	C34.198093,83.971230 55.529057,83.999146 76.860008,83.992470 
	C83.888680,83.990265 83.983200,83.873634 83.996643,76.576141 
	C84.036232,55.078770 84.057037,33.581356 84.085190,12.083961 
z"/>
<path fill="#5A4C5C" opacity="1.000000" stroke="none" 
	d="
M83.611000,12.101113 
	C84.057037,33.581356 84.036232,55.078770 83.996643,76.576141 
	C83.983200,83.873634 83.888680,83.990265 76.860008,83.992470 
	C55.529057,83.999146 34.198093,83.971230 12.393895,83.926849 
	C12.002590,63.135170 12.093722,42.373440 12.162322,21.611639 
	C12.193512,12.171877 12.173280,12.173269 21.839376,12.166142 
	C42.271851,12.151075 62.704327,12.134325 83.611000,12.101113 
z"/>
</svg>