<svg version="1.1" id="Layer_1" xmlns="http://www.w3.org/2000/svg" xmlns:xlink="http://www.w3.org/1999/xlink" x="0px" y="0px"
	 width="100%" viewBox="0 0 94 94" enable-background="new 0 0 94 94" xml:space="preserve">
<path fill="#708070" opacity="1.000000" stroke="none" 
	d="
M2.000002,95.000000 
	C1.666668,93.671066 1.044828,92.342659 1.042375,91.013115 
	C0.987180,61.092365 1.000000,31.171492 1.000000,1.000000 
	C32.332890,1.000000 63.666443,1.000000 94.654938,1.527425 
	C90.901657,5.397897 87.493446,8.740944 83.611130,12.102882 
	C62.809174,12.140140 42.481327,12.159726 22.153477,12.176348 
	C12.183530,12.184500 12.205566,12.182084 12.172337,21.922853 
	C12.101864,42.580914 12.006050,63.238888 11.649673,84.099731 
	C8.252481,87.868385 5.126242,91.434196 2.000002,95.000000 
z"/>
<path fill="#223222" opacity="1.000000" stroke="none" 
	d="
M84.085228,12.083990 
	C87.493446,8.740944 90.901657,5.397897 94.654938,2.027425 
	C95.000000,32.926922 95.000000,63.853840 95.000000,95.000000 
	C64.312790,95.000000 33.625050,95.000000 2.468658,95.000000 
	C5.126242,91.434196 8.252481,87.868385 12.122879,84.129440 
	C34.191521,83.970764 55.516010,84.000000 76.840485,83.991264 
	C83.840134,83.988396 83.981636,83.822510 83.995674,76.556564 
	C84.037216,55.065727 84.056953,33.574848 84.085228,12.083990 
z"/>
<path fill="#4C5C4C" opacity="1.000000" stroke="none" 
	d="
M83.611130,12.102882 
	C84.056953,33.574848 84.037216,55.065727 83.995674,76.556564 
	C83.981636,83.822510 83.840134,83.988396 76.840485,83.991264 
	C55.516010,84.000000 34.191521,83.970764 12.393831,83.926605 
	C12.006050,63.238888 12.101864,42.580914 12.172337,21.922853 
	C12.205566,12.182084 12.183530,12.184500 22.153477,12.176348 
	C42.481327,12.159726 62.809174,12.140140 83.611130,12.102882 
z"/>
</svg>